<svg width="50" height="50" viewBox="0 0 50 50" fill="none" xmlns="http://www.w3.org/2000/svg">
<rect x="0.75" y="0.75" width="48.5" height="48.5" rx="9.25" stroke="#EEEEEE" stroke-width="1.5"/>
<path d="M31.5 30.0158C31.3684 30.0166 31.2379 29.9913 31.1161 29.9416C30.9943 29.8918 30.8834 29.8185 30.79 29.7258C30.6963 29.6328 30.6219 29.5222 30.5711 29.4004C30.5203 29.2785 30.4942 29.1478 30.4942 29.0158C30.4942 28.8838 30.5203 28.7531 30.5711 28.6312C30.6219 28.5094 30.6963 28.3988 30.79 28.3058L34.1 25.0158L30.92 21.7058C30.7337 21.5184 30.6292 21.265 30.6292 21.0008C30.6292 20.7366 30.7337 20.4832 30.92 20.2958C31.013 20.2021 31.1236 20.1277 31.2454 20.0769C31.3673 20.0261 31.498 20 31.63 20C31.762 20 31.8927 20.0261 32.0146 20.0769C32.1364 20.1277 32.247 20.2021 32.34 20.2958L36.2 24.2958C36.3832 24.4827 36.4859 24.734 36.4859 24.9958C36.4859 25.2576 36.3832 25.5089 36.2 25.6958L32.2 29.6958C32.1102 29.7927 32.0022 29.8709 31.882 29.9258C31.7619 29.9808 31.632 30.0113 31.5 30.0158V30.0158Z" fill="#F16214"/>
<line x1="34" y1="25.0156" x2="15" y2="25.0156" stroke="#F16214" stroke-width="2" stroke-linecap="round"/>
</svg>
