<svg width="50" height="50" viewBox="0 0 50 50" fill="none" xmlns="http://www.w3.org/2000/svg">
<rect x="49.9999" y="50" width="50" height="50" rx="10" transform="rotate(-180 49.9999 50)" fill="#F16214"/>
<path d="M18.4999 19.9842C18.6315 19.9834 18.762 20.0087 18.8838 20.0584C19.0057 20.1082 19.1165 20.1815 19.2099 20.2742C19.3037 20.3672 19.3781 20.4778 19.4288 20.5996C19.4796 20.7215 19.5057 20.8522 19.5057 20.9842C19.5057 21.1162 19.4796 21.2469 19.4288 21.3688C19.3781 21.4906 19.3037 21.6012 19.2099 21.6942L15.8999 24.9842L19.0799 28.2942C19.2662 28.4816 19.3707 28.735 19.3707 28.9992C19.3707 29.2634 19.2662 29.5168 19.0799 29.7042C18.987 29.7979 18.8764 29.8723 18.7545 29.9231C18.6327 29.9739 18.502 30 18.3699 30C18.2379 30 18.1072 29.9739 17.9854 29.9231C17.8635 29.8723 17.7529 29.7979 17.6599 29.7042L13.7999 25.7042C13.6167 25.5173 13.5141 25.266 13.5141 25.0042C13.5141 24.7425 13.6167 24.4911 13.7999 24.3042L17.7999 20.3042C17.8897 20.2073 17.9978 20.1291 18.1179 20.0742C18.2381 20.0192 18.3679 19.9887 18.4999 19.9842V19.9842Z" fill="white"/>
<line x1="15.9999" y1="24.9844" x2="34.9999" y2="24.9844" stroke="white" stroke-width="2" stroke-linecap="round"/>
</svg>
