<svg width="36" height="14" viewBox="0 0 36 14" fill="none" xmlns="http://www.w3.org/2000/svg">
<path d="M7.84896 11.7273C7.54548 11.5574 7.17554 11.5574 6.87207 11.7273L4.70357 12.9411C3.95897 13.3579 3.06802 12.7106 3.23429 11.8736L3.71855 9.43608C3.78632 9.09496 3.67198 8.74313 3.41663 8.50701L1.5918 6.81962C0.965273 6.24028 1.30555 5.19287 2.15295 5.09237L4.62099 4.79966C4.96633 4.7587 5.26558 4.54128 5.41125 4.2255L6.45247 1.9684C6.8099 1.19358 7.91112 1.19358 8.26855 1.9684L9.30977 4.2255C9.45544 4.54128 9.7547 4.7587 10.1 4.79966L12.5681 5.09237C13.4155 5.19287 13.7558 6.24028 13.1292 6.81962L11.3044 8.50701C11.049 8.74313 10.9347 9.09496 11.0025 9.43608L11.4867 11.8736C11.653 12.7106 10.762 13.3579 10.0175 12.9411L7.84896 11.7273Z" fill="#F16214"/>
<path d="M26.0156 8.07812V9.29199H20.3813L20.3062 8.35205L23.5664 3.17969H24.7964L23.4644 5.40869L21.8423 8.07812H26.0156ZM25.1294 3.17969V11H23.5825V3.17969H25.1294ZM26.9932 10.2534C26.9932 10.0243 27.0719 9.83268 27.2295 9.67871C27.3906 9.52474 27.6037 9.44775 27.8687 9.44775C28.1336 9.44775 28.3449 9.52474 28.5024 9.67871C28.6636 9.83268 28.7441 10.0243 28.7441 10.2534C28.7441 10.4826 28.6636 10.6742 28.5024 10.8281C28.3449 10.9821 28.1336 11.0591 27.8687 11.0591C27.6037 11.0591 27.3906 10.9821 27.2295 10.8281C27.0719 10.6742 26.9932 10.4826 26.9932 10.2534ZM35.356 3.17969V4.01221L32.332 11H30.6992L33.7231 4.38818H29.8291V3.17969H35.356Z" fill="black"/>
</svg>
