<svg width="36" height="14" viewBox="0 0 36 14" fill="none" xmlns="http://www.w3.org/2000/svg">
<path d="M7.84896 11.7273C7.54548 11.5574 7.17554 11.5574 6.87207 11.7273L4.70357 12.9411C3.95897 13.3579 3.06802 12.7106 3.23429 11.8736L3.71855 9.43608C3.78632 9.09496 3.67198 8.74313 3.41663 8.50701L1.59181 6.81962C0.965273 6.24028 1.30555 5.19287 2.15295 5.09237L4.62099 4.79966C4.96633 4.7587 5.26558 4.54128 5.41125 4.2255L6.45247 1.9684C6.8099 1.19358 7.91112 1.19358 8.26855 1.9684L9.30977 4.2255C9.45544 4.54128 9.7547 4.7587 10.1 4.79966L12.5681 5.09237C13.4155 5.19287 13.7558 6.24028 13.1292 6.81962L11.3044 8.50701C11.049 8.74313 10.9347 9.09496 11.0025 9.43608L11.4867 11.8736C11.653 12.7106 10.762 13.3579 10.0175 12.9411L7.84896 11.7273Z" fill="#F16214"/>
<path d="M26.0156 8.07812V9.29199H20.3813L20.3062 8.35205L23.5664 3.17969H24.7964L23.4644 5.40869L21.8423 8.07812H26.0156ZM25.1294 3.17969V11H23.5825V3.17969H25.1294ZM26.9932 10.2534C26.9932 10.0243 27.0719 9.83268 27.2295 9.67871C27.3906 9.52474 27.6037 9.44775 27.8687 9.44775C28.1336 9.44775 28.3449 9.52474 28.5024 9.67871C28.6636 9.83268 28.7441 10.0243 28.7441 10.2534C28.7441 10.4826 28.6636 10.6742 28.5024 10.8281C28.3449 10.9821 28.1336 11.0591 27.8687 11.0591C27.6037 11.0591 27.3906 10.9821 27.2295 10.8281C27.0719 10.6742 26.9932 10.4826 26.9932 10.2534ZM31.1396 9.82373H31.2417C31.6714 9.82373 32.0402 9.77181 32.3481 9.66797C32.6597 9.56055 32.9157 9.40658 33.1162 9.20605C33.3167 9.00553 33.4653 8.76025 33.562 8.47021C33.6587 8.1766 33.707 7.84359 33.707 7.47119V5.98877C33.707 5.70589 33.6784 5.45703 33.6211 5.24219C33.5674 5.02734 33.4886 4.8501 33.3848 4.71045C33.2845 4.56722 33.1663 4.4598 33.0303 4.38818C32.8978 4.31657 32.751 4.28076 32.5898 4.28076C32.418 4.28076 32.2658 4.32373 32.1333 4.40967C32.0008 4.49202 31.888 4.60482 31.7949 4.74805C31.7054 4.89128 31.6356 5.05599 31.5854 5.24219C31.5389 5.4248 31.5156 5.61637 31.5156 5.81689C31.5156 6.01742 31.5389 6.20898 31.5854 6.3916C31.632 6.57064 31.7018 6.72998 31.7949 6.86963C31.888 7.0057 32.0044 7.11491 32.144 7.19727C32.2837 7.27604 32.4484 7.31543 32.6382 7.31543C32.8208 7.31543 32.9837 7.28141 33.127 7.21338C33.2738 7.14176 33.3973 7.04867 33.4976 6.93408C33.6014 6.8195 33.6802 6.69238 33.7339 6.55273C33.7912 6.41309 33.8198 6.27165 33.8198 6.12842L34.3301 6.40771C34.3301 6.65837 34.2764 6.90544 34.1689 7.14893C34.0615 7.39242 33.9111 7.61442 33.7178 7.81494C33.528 8.01188 33.3078 8.16943 33.0571 8.2876C32.8065 8.40576 32.5379 8.46484 32.2515 8.46484C31.8862 8.46484 31.5622 8.3986 31.2793 8.26611C30.9964 8.13005 30.7565 7.94385 30.5596 7.70752C30.3662 7.46761 30.2194 7.18831 30.1191 6.86963C30.0189 6.55094 29.9688 6.2054 29.9688 5.83301C29.9688 5.45345 30.0296 5.09717 30.1514 4.76416C30.2767 4.43115 30.4539 4.13753 30.6831 3.8833C30.9159 3.62907 31.1934 3.43034 31.5156 3.28711C31.8415 3.1403 32.2031 3.06689 32.6006 3.06689C32.998 3.06689 33.3597 3.14388 33.6855 3.29785C34.0114 3.45182 34.2907 3.67025 34.5234 3.95312C34.7562 4.23242 34.9352 4.56722 35.0605 4.95752C35.1895 5.34782 35.2539 5.78109 35.2539 6.25732V6.79443C35.2539 7.3029 35.1984 7.77555 35.0874 8.2124C34.98 8.64925 34.8171 9.04492 34.5986 9.39941C34.3838 9.75033 34.1152 10.0511 33.793 10.3018C33.4743 10.5524 33.1037 10.744 32.6812 10.8765C32.2586 11.009 31.786 11.0752 31.2632 11.0752H31.1396V9.82373Z" fill="black"/>
</svg>
